<svg width="25" height="24" viewBox="0 0 25 24" fill="none" xmlns="http://www.w3.org/2000/svg">
<path d="M16.489 4L14.986 5.5H5.75L5.606 5.506C5.1683 5.54214 4.76019 5.74153 4.46268 6.0646C4.16517 6.38768 4.00002 6.81081 4 7.25V9.49L6.61 7.85C7.09067 7.54782 7.66782 7.43854 8.22569 7.54407C8.78356 7.6496 9.28091 7.96213 9.618 8.419L9.713 8.558C9.90643 8.86601 10.0223 9.21633 10.0507 9.57894C10.0791 9.94155 10.0191 10.3056 9.876 10.64L9.797 10.806L8.589 13.092C8.5177 13.227 8.48931 13.3806 8.50764 13.5322C8.52597 13.6838 8.59014 13.8262 8.69157 13.9404C8.79301 14.0545 8.92687 14.135 9.07526 14.171C9.22366 14.2071 9.37952 14.1969 9.522 14.142L9.62 14.096L11.38 13.103C11.5451 13.0107 11.739 12.9842 11.9228 13.0288C12.1066 13.0734 12.2668 13.1858 12.3713 13.3435C12.4757 13.5012 12.5167 13.6925 12.4861 13.8791C12.4554 14.0658 12.3554 14.234 12.206 14.35L12.121 14.407L10.356 15.403C9.94449 15.6346 9.47054 15.7309 9.00128 15.6782C8.53201 15.6255 8.09123 15.4264 7.74136 15.1093C7.39148 14.7922 7.15026 14.373 7.05184 13.9112C6.95342 13.4493 7.00281 12.9682 7.193 12.536L7.263 12.391L8.471 10.105C8.54355 9.96744 8.57155 9.81072 8.55111 9.65655C8.53067 9.50238 8.46281 9.35838 8.35692 9.24447C8.25104 9.13057 8.11236 9.05239 7.96009 9.02078C7.80782 8.98916 7.64948 9.00566 7.507 9.068L7.409 9.12L4 11.262V16.755C4 17.721 4.784 18.505 5.75 18.505H19.25C19.7141 18.505 20.1592 18.3206 20.4874 17.9924C20.8156 17.6642 21 17.2191 21 16.755V9.443L22.5 7.946V16.755C22.5 17.1818 22.4159 17.6044 22.2526 17.9987C22.0893 18.393 21.8499 18.7513 21.5481 19.0531C21.2463 19.3549 20.888 19.5943 20.4937 19.7576C20.0994 19.9209 19.6768 20.005 19.25 20.005H5.75C4.88805 20.005 4.0614 19.6626 3.4519 19.0531C2.84241 18.4436 2.5 17.6169 2.5 16.755V7.25C2.49995 6.41986 2.81755 5.62117 3.38767 5.01777C3.95779 4.41436 4.73719 4.05199 5.566 4.005L5.75 4H16.489ZM21.675 3.545L21.805 3.665L21.926 3.795C22.2974 4.22929 22.4912 4.78771 22.4688 5.3587C22.4463 5.92968 22.2093 6.47118 21.805 6.875L17.524 11.148C17.2609 11.4103 16.9369 11.6034 16.581 11.71L14.254 12.41C14.0793 12.4626 13.8935 12.4665 13.7168 12.4211C13.5401 12.3757 13.3791 12.2828 13.2514 12.1525C13.1237 12.0222 13.0341 11.8595 12.9922 11.6819C12.9504 11.5043 12.9579 11.3186 13.014 11.145L13.753 8.85C13.863 8.51 14.052 8.2 14.305 7.947L18.595 3.664C18.9991 3.26005 19.5406 3.02334 20.1115 3.0011C20.6824 2.97885 21.2407 3.17272 21.675 3.544V3.545ZM19.655 4.725L15.365 9.009C15.2808 9.09301 15.2177 9.19583 15.181 9.309L14.734 10.699L16.15 10.274C16.2686 10.2381 16.3764 10.1736 16.464 10.086L20.744 5.813L20.819 5.727C20.9375 5.57111 20.992 5.3759 20.9715 5.18118C20.951 4.98645 20.857 4.80688 20.7087 4.67908C20.5604 4.55128 20.3689 4.48487 20.1733 4.4934C19.9776 4.50194 19.7926 4.58476 19.656 4.725H19.655Z" fill="#7F56D9"/>
</svg>
