<svg width="25" height="24" viewBox="0 0 25 24" fill="none" xmlns="http://www.w3.org/2000/svg">
<path d="M6.075 2.07399C6.20232 2.1352 6.30975 2.23113 6.38494 2.35073C6.46013 2.47032 6.50002 2.60872 6.5 2.74999C6.5 3.57999 6.812 4.05799 7.203 4.63999L7.232 4.68199C7.564 5.17599 8 5.82299 8 6.74999C8 7.69599 7.523 8.52999 6.796 9.02499C6.987 9.18499 7.156 9.38199 7.302 9.61799C7.778 10.388 8 11.565 8 13.255C8 14.967 7.77 17.023 7.395 18.665C7.209 19.481 6.978 20.234 6.703 20.799C6.57317 21.0801 6.40119 21.3398 6.193 21.569C5.987 21.78 5.67 22.005 5.25 22.005C4.83 22.005 4.513 21.78 4.308 21.569C4.09921 21.3402 3.92717 21.0805 3.798 20.799C3.522 20.233 3.291 19.481 3.105 18.664C2.71495 16.8867 2.51217 15.0735 2.5 13.254C2.5 11.564 2.722 10.388 3.198 9.61799C3.3338 9.39448 3.50464 9.19426 3.704 9.02499C3.33277 8.77295 3.02894 8.43382 2.81905 8.03723C2.60917 7.64065 2.49963 7.19869 2.5 6.74999C2.5 6.38199 2.5 5.74899 2.883 4.93199C3.258 4.13199 3.971 3.21299 5.281 2.16399C5.39141 2.07567 5.52453 2.02036 5.66502 2.00444C5.8055 1.98851 5.94763 2.01262 6.075 2.07399ZM4 6.74899V6.74999C4 7.08151 4.1317 7.39945 4.36612 7.63387C4.60054 7.86829 4.91848 7.99999 5.25 7.99999C5.58152 7.99999 5.89946 7.86829 6.13388 7.63387C6.3683 7.39945 6.5 7.08151 6.5 6.74999C6.5 6.31099 6.315 6.00699 5.958 5.47599L5.946 5.45799C5.717 5.11799 5.446 4.71499 5.254 4.19799C4.711 4.74999 4.411 5.20799 4.242 5.56799C4 6.08399 4 6.45099 4 6.74799V6.74899ZM4.474 10.406C4.226 10.808 4 11.632 4 13.255C4 14.856 4.218 16.8 4.567 18.331C4.743 19.101 4.943 19.726 5.146 20.142C5.183 20.219 5.218 20.283 5.25 20.337C5.282 20.283 5.317 20.219 5.354 20.142C5.557 19.726 5.757 19.1 5.933 18.331C6.283 16.801 6.5 14.857 6.5 13.255C6.5 11.632 6.274 10.808 6.026 10.406C5.95121 10.2707 5.83816 10.1604 5.701 10.089C5.55899 10.0271 5.40476 9.99841 5.25 10.005C5.05 10.005 4.907 10.036 4.799 10.089C4.66184 10.1604 4.54879 10.2707 4.474 10.406ZM10.5 14.918C9.97021 14.8291 9.45487 14.669 8.968 14.442C8.99727 13.8748 9.00561 13.3068 8.993 12.739C9.444 13.042 9.953 13.265 10.5 13.389V10.5C10.5 10.1022 10.658 9.72063 10.9393 9.43933C11.2206 9.15802 11.6022 8.99999 12 8.99999H16C16 8.16068 15.7652 7.33811 15.3222 6.62522C14.8792 5.91233 14.2457 5.33753 13.4933 4.96576C12.7408 4.594 11.8993 4.44008 11.064 4.52141C10.2286 4.60273 9.43264 4.91606 8.766 5.42599C8.566 4.87299 8.281 4.44999 8.083 4.15599L8.043 4.09599C8.94146 3.46263 9.99664 3.08827 11.0934 3.01377C12.1901 2.93928 13.2862 3.1675 14.2621 3.67354C15.2379 4.17957 16.056 4.94397 16.627 5.88329C17.198 6.8226 17.5 7.90073 17.5 8.99999H21C21.3978 8.99999 21.7794 9.15802 22.0607 9.43933C22.342 9.72063 22.5 10.1022 22.5 10.5V19.5C22.5 19.8978 22.342 20.2793 22.0607 20.5606C21.7794 20.842 21.3978 21 21 21H12C11.6022 21 11.2206 20.842 10.9393 20.5606C10.658 20.2793 10.5 19.8978 10.5 19.5V14.917V14.918ZM12 14.981V19.501H21V10.501H17.31C16.9984 11.706 16.3201 12.7844 15.3688 13.587C14.4175 14.3896 13.2403 14.8767 12 14.981ZM15.744 10.501H12V13.474C12.8402 13.3798 13.6369 13.051 14.299 12.5252C14.9611 11.9995 15.4619 11.298 15.744 10.501Z" fill="#7F56D9"/>
</svg>
